<svg width="174" height="60" viewBox="0 0 174 60" fill="none" xmlns="http://www.w3.org/2000/svg">
<path opacity="0.7" d="M8.01269 4.875H170.127C171.517 4.875 172.532 6.18599 172.185 7.53105L166.12 31.0316C165.956 31.6668 165.956 32.3332 166.12 32.9684L172.185 56.4689C172.532 57.814 171.517 59.125 170.127 59.125H8.0127C6.59334 59.125 5.57295 57.7602 5.97451 56.3988L12.848 33.0963C13.0591 32.3807 13.0591 31.6193 12.848 30.9037L5.97451 7.6012C5.57295 6.23983 6.59333 4.875 8.01269 4.875Z" fill="#101820" stroke="#101820" stroke-width="1.75"/>
<path d="M5.35026 0.875H164.837C166.879 0.875 168.373 2.80293 167.862 4.78096L162.184 26.7817C161.978 27.5808 161.978 28.4192 162.184 29.2183L167.862 51.219C168.373 53.1971 166.879 55.125 164.837 55.125H5.35026C3.26296 55.125 1.7624 53.1179 2.35293 51.1159L8.76455 29.3792C9.03012 28.4789 9.03012 27.5211 8.76455 26.6208L2.35293 4.88412C1.7624 2.8821 3.26296 0.875 5.35026 0.875Z" fill="#FA4B28" stroke="#101820" stroke-width="1.75"/>
</svg>
